
<svg xmlns="http://www.w3.org/2000/svg" version="1.1" xmlns:xlink="http://www.w3.org/1999/xlink" preserveAspectRatio="none" x="0px" y="0px" width="1000px" height="600px" viewBox="0 0 1000 600">
<defs>
<g id="Layer0_0_FILL">
<path fill="#8B7F74" stroke="none" d="
M 459.15 88.8
Q 457 87.25 454.2 88.65 453.65 88.95 413.85 109.95 373 131.55 359.35 138.3 321.8 156.15 302.65 165.7 268 183 268 187.2 268 195.65 263.95 281.25 263.85 285.45 264.4 365.75 264.5 381.75 264.5 415.25 264.5 448.75 264.4 452.45 263.95 468.7 262.5 533.5 261.15 590.8 261 594.4 260.9 596.3 265.65 597.6 269.95 598.75 276.1 598.9 282.35 599.05 286.6 597.95 291.45 596.7 291.5 594.25 291.4 591.25 291.55 588.45 291.6 586.7 308.2 576.15 331.1 561.65 334.55 559.15 360.35 540.75 393.05 522.2 398.9 518.9 396.6 511.8 395.7 509.1 394 507.45 392.2 505.75 390.7 506.35 377.45 511.85 368.3 516.7 354.55 524 335 536.95 310.6 553.2 300.7 558.2 291.25 563 291.85 559.05 294.05 544.1 296.2 504.25 297.7 475 297.95 463.3 298.85 435.35 298.7 397.7 298.6 362.85 298.75 359.35 298.8 358.65 310.25 350.3 323 341.1 340.3 329.5 388.25 297.45 430.2 274.75 432.55 273.45 433.3 270.1 433.9 267.05 432.95 263.75 431.95 260.35 429.85 258.8 427.45 257.1 424.55 258.6 419.15 261.45 390.3 275.7 369.1 286.15 357.2 293.2 339.05 303.9 320 313.15 299.8 323 297.6 321.8 292.65 319 295.2 266.05 298.9 211.15 299.2 205.95 299.25 204.55 352.15 170.85 404.05 137.8 414.65 132.05 429.55 123.9 444.95 113.8 451.8 109.3 458.95 104.2 461.15 102.6 461.95 99.3 462.65 96.3 461.85 93.25 461.05 90.15 459.15 88.8
M 209.35 75.25
Q 208.15 72.35 205.95 71.15 203.5 69.8 200.7 71.2 200.65 71.25 160.4 95.35 119.75 119.65 105.95 126.5 92.5 133.15 62.05 152.1 40.15 165.7 40.1 163.1 39.55 146.2 34.4 41.5 32.9 7.4 32.75 5.75 32.55 3.15 29.9 2.55 27.5 1.95 24.15 3.1 20.85 4.25 18.55 6.45 16 8.85 16 11.45 15.85 43.1 15.55 75.6 14.85 140.35 13.85 149.85 12.05 167.2 8.25 216.45 4.35 267.65 3.9 281.25 3.6 291.15 4.3 365.75 4.95 438.3 4.7 442.65 4.3 449.3 2.6 519.05 0.95 588.5 1 594.7 1.05 596.8 5.95 597.95 10.3 598.95 16.8 598.95 23.1 598.95 27.65 597.95 32.65 596.9 32.75 595.15 38.45 478.8 38.9 463.3 39.85 435.1 39.7 391.95 39.55 350.9 39.7 347.85 39.75 347.15 52.4 338.1 66.3 328.2 85.05 315.75 136.75 281.45 178.75 258.75 181.1 257.45 181.85 254.3 182.45 251.35 181.5 248.3 180.5 245.15 178.4 243.75 176 242.25 173.1 243.75 161.35 249.9 155.55 251.75 149.45 253.65 142 257.45 107.55 275.85 84.45 288.1 40.45 311.35 38.6 310.3 33.65 307.5 35.75 257.9 39 206.3 39.3 201.1 39.4 199.15 78.1 174.4 118.6 148.5 134.15 142.05 137.55 140.6 147.95 131.1 159 121 165.8 117.3 180.45 109.25 194.8 97.15 202 91 207.45 85.65 209.65 84.05 210.1 80.95 210.55 78.1 209.35 75.25
M 982.1 254.8
Q 973 258.4 972.7 262.2 972.65 263.45 974.6 315.1 976.6 367.2 976.35 376.25 975.3 408.65 970.9 457.7 967.05 500.4 965 511.85 964.65 513.7 961.3 517.95 957.35 522.95 951.4 528.25 934.95 542.8 912.7 551.1 893.25 558.35 875.15 559.4 867.65 559.85 863.2 558.9 858.8 558 859.1 556.05 861.25 541.5 860.05 502.75 858.35 465.85 858.4 463.3 859.35 435.15 859.15 306.15 859 180.1 859.15 177.45 859.2 176.7 855.9 176.45 852.6 176.25 848.7 176.8 838.2 178.25 838.2 182.7 838.2 192.15 834.15 247.4 830.25 301.4 830.4 307.4 830.4 350.8 830.85 421.25 830.95 428.25 829.15 509.3 827.25 593.15 827.25 593.7 827.25 595.9 832.4 597.15 837.05 598.3 843.85 598.3 850.55 598.35 855.25 597.25 860.45 596.1 860.45 594.15
L 860.75 588.45
Q 860.8 587.75 868.5 586.35 873.2 585.5 886.4 583.2 914 578.1 921.45 572.45 923.35 571 939.5 565 955.6 559.05 957.35 557.7 963.6 552.75 973.45 537.7 981.65 525.15 983.05 525.9 988 528.7 993.3 456.2 997.75 380.9 998 376.4 998.2 373.2 994.8 315.1 991.3 256 991.3 255.4 991.25 253.35 988.4 253.3 985.85 253.3 982.1 254.8
M 698.25 293.45
Q 696.4 291.85 693.5 293.35 681.75 299.5 675.95 300.8 669.85 302.15 662.4 305.95 642.25 316.25 631.35 321.75 612.05 331.45 599.35 337.3 587.65 342.65 570.3 352.8 558.55 359.65 557 358.8 552.1 356 552.75 270 554.35 183.6 554.15 181.7 553.95 179.1 549.55 179.25 545.6 179.35 539.95 181.55 534.35 183.7 530.45 186.6 526.15 189.8 526.15 192.4 526.15 196.35 523.3 282.25 523 292.15 523.7 366.75 524.35 439.3 524.1 443.65 523.7 450.35 522 519.55 520.35 588.5 520.4 594.7 520.45 599 535.7 598.95 541.8 598.95 546.2 597.95 551.05 596.9 551.15 595.15 551.2 594 551.95 571.65 552.85 544.75 553.95 518.1 554.15 512.5 555.75 491.65 557.1 472.95 557.3 464.3 558.25 436.05 558.1 414.7 557.95 395.3 558.1 392.35 558.2 391.45 593.35 368.6 628.75 345.6 634.25 343.1 646.35 337.6 665.25 326.55 691.4 311.25 695.75 308.85 698.15 307.55 699.35 304.3 700.5 301.35 700.2 298.15 699.9 294.9 698.25 293.45
M 721.55 124.25
Q 721.55 121.65 719 119.9 716.7 118.25 713.4 117.95 710.05 117.6 707.65 118.7 704.95 119.95 704.75 122.55 704.65 123.9 701.4 145.3 698.25 167.3 698 172.35 697.95 174.8 702.9 242.7 706.85 310 701.95 312.8 700.05 313.8 700.25 330.8 700.25 341.05 700.8 348.85 700.95 352 700.8 393 700.7 436.25 701.6 464.3 701.85 472.95 703.2 491.65 704.75 512.5 705 518.1 706.1 544.15 707 571.65 707.7 593.45 707.8 595.15 707.95 596.9 712.75 597.95 717.15 598.95 723.25 598.95 738.5 599 738.55 594.7 738.65 588.5 736.95 519.55 735.25 450.35 734.85 443.65 734.55 439.3 735.25 366.75 735.9 292.1 735.6 282.25 735.3 271.95 730.05 248.95 724.25 223.45 723.25 213.9 722.6 207.75 722 166.3 721.55 133.85 721.55 124.25 Z"/>
</g>
</defs>

<g transform="matrix( 1, 0, 0, 1, 0,0) ">
<use xlink:href="#Layer0_0_FILL"/>
</g>
</svg>
