
<svg xmlns="http://www.w3.org/2000/svg" version="1.1" xmlns:xlink="http://www.w3.org/1999/xlink" preserveAspectRatio="none" x="0px" y="0px" width="1000px" height="600px" viewBox="0 0 1000 600">
<defs>
<g id="Layer0_0_FILL">
<path fill="#8B7F74" stroke="none" d="
M 708.55 124.25
Q 708.55 121.65 706 119.9 703.7 118.25 700.4 117.95 697.05 117.6 694.65 118.7 691.95 119.95 691.75 122.55 691.75 122.6 688.45 145.25 685.2 167.3 685 172.35 684.95 174.8 689.9 242.7 693.85 310 688.95 312.8 687.05 313.85 687.2 330.85 687.3 339.4 687.8 348.85 688 352.35 687.85 392.95 687.7 436.35 688.6 464.3 688.85 473 690.2 491.65 691.75 512.75 692 518.1 693.1 544.15 694 571.65 694.7 593.45 694.8 595.15 694.95 596.9 699.75 597.95 704.15 598.95 710.25 598.95 725.5 599 725.55 594.7 725.65 588.5 723.95 519.55 722.25 450.35 721.85 443.65 721.55 439.3 722.25 366.75 722.9 292.1 722.6 282.25 722.3 271.95 717.05 248.95 711.25 223.45 710.25 213.9 709.6 207.75 709 166.3 708.55 133.85 708.55 124.25
M 678.25 293.45
Q 676.4 291.85 673.5 293.35 661.75 299.5 655.95 300.8 649.85 302.15 642.4 305.95 622.25 316.25 611.35 321.75 592.05 331.45 579.35 337.3 567.65 342.65 550.3 352.8 538.55 359.65 537 358.8 532.1 356 532.75 270 534.35 183.6 534.15 181.7 533.95 179.1 530.15 179.25 526.75 179.35 521.95 181.55 517.15 183.7 513.8 186.6 510.15 189.8 510.15 192.4 510.15 193.35 506.95 231.65 503.65 271.05 503.3 282.25 503 292.15 503.7 366.75 504.35 439.3 504.1 443.65 503.7 450.35 502 519.55 500.35 588.5 500.4 594.7 500.45 599 515.7 598.95 521.8 598.95 526.2 597.95 531.05 596.9 531.15 595.15 531.2 594 531.95 571.65 532.85 544.75 533.95 518.1 534.2 512.3 535.7 491.65 537.05 472.9 537.3 464.3 538.25 436.05 538.1 414.7 537.95 395.3 538.1 392.35 538.2 391.45 573.35 368.6 608.75 345.6 614.25 343.1 626.35 337.6 645.25 326.55 671.4 311.25 675.75 308.85 678.15 307.55 679.35 304.3 680.5 301.35 680.2 298.15 679.9 294.9 678.25 293.45
M 452.85 93.25
Q 452.05 90.15 450.15 88.8 448 87.25 445.2 88.65 444.65 88.95 404.85 109.95 364 131.55 350.35 138.3 312.8 156.15 293.65 165.7 259 183 259 187.2 259 195.65 254.95 281.25 254.85 285.45 255.4 365.75 255.5 381.75 255.5 415.25 255.5 448.75 255.4 452.45 254.95 468.7 253.5 533.5 252.15 590.8 252 594.4 251.9 596.3 256.65 597.6 260.95 598.75 267.1 598.9 273.35 599.05 277.6 597.95 282.45 596.7 282.5 594.25 282.4 591.25 282.55 588.45 282.6 586.7 299.2 576.15 322.1 561.65 325.55 559.15 351.35 540.75 384.05 522.2 389.9 518.9 387.6 511.8 386.7 509.1 385 507.45 383.2 505.75 381.7 506.35 368.45 511.85 359.3 516.7 345.55 524 326 536.95 301.6 553.2 291.7 558.2 282.25 563 282.85 559.05 285.05 544.1 287.2 504.25 288.7 475 288.95 463.3 289.85 435.35 289.7 397.7 289.6 362.85 289.75 359.35 289.8 358.65 301.25 350.3 314 341.1 331.3 329.5 379.25 297.45 421.2 274.75 423.55 273.45 424.3 270.1 424.9 267.05 423.95 263.75 422.95 260.35 420.85 258.8 418.45 257.1 415.55 258.6 410.15 261.45 381.3 275.7 360.1 286.15 348.2 293.2 330.05 303.9 311 313.15 290.8 323 288.6 321.8 283.65 319 286.2 266.05 289.9 211.15 290.2 205.95 290.25 204.55 343.15 170.85 395.05 137.8 405.65 132.05 420.55 123.9 435.95 113.8 442.8 109.3 449.95 104.2 452.15 102.6 452.95 99.3 453.65 96.3 452.85 93.25
M 982.1 250.8
Q 973 254.4 972.7 258.2 972.65 259.45 974.6 311.1 976.6 363.2 976.35 372.25 975.3 404.65 970.9 453.7 967.05 496.4 965 507.85 964.7 509.55 960.05 514.25 954.95 519.45 947.4 525.25 927.2 540.65 904.7 549.1 885.1 556.45 862.15 558.4 852.65 559.25 846.8 558.6 840.8 557.95 841.1 556.05 843.25 541.5 842.05 502.75 840.35 465.85 840.4 463.3 841.35 435.15 841.15 306.15 841 180.1 841.15 177.45 841.2 176.7 837.9 176.45 834.6 176.25 830.7 176.8 820.2 178.25 820.2 182.7 820.2 192.15 816.15 247.4 812.25 301.4 812.4 307.4 812.4 350.8 812.85 421.25 812.95 428.25 811.15 509.3 809.25 593.15 809.25 593.7 809.25 595.9 814.4 597.15 819.05 598.3 825.85 598.3 832.55 598.35 837.25 597.25 842.45 596.1 842.45 594.15
L 842.75 588.45
Q 842.8 587.75 852.05 586 857.7 585 873.4 582.2 906 576.1 913.45 570.45 915.35 569 933.5 563 951.6 557.05 953.35 555.7 959.35 550.95 971.45 534.7 981.55 521.1 983.05 521.9 988 524.7 993.3 452.2 997.75 376.9 998 372.4 998.2 369.2 994.8 311.1 991.3 252 991.3 251.4 991.25 249.35 988.4 249.3 985.85 249.3 982.1 250.8
M 209.35 75.25
Q 208.15 72.35 205.95 71.15 203.5 69.8 200.7 71.2 200.65 71.25 160.4 95.35 119.75 119.65 105.95 126.5 92.5 133.15 62.05 152.1 40.15 165.7 40.1 163.1 39.55 146.2 34.4 41.5 32.9 7.4 32.75 5.75 32.55 3.15 29.9 2.55 27.5 1.95 24.15 3.1 20.85 4.25 18.55 6.45 16 8.85 16 11.45 15.85 43.1 15.55 75.6 14.85 140.35 13.85 149.85 12.05 167.2 8.25 216.45 4.35 267.65 3.9 281.25 3.6 291.15 4.3 365.75 4.95 438.3 4.7 442.65 4.3 449.3 2.6 519.05 0.95 588.5 1 594.7 1.05 596.8 5.95 597.95 10.3 598.95 16.8 598.95 23.1 598.95 27.65 597.95 32.65 596.9 32.75 595.15 38.45 478.8 38.9 463.3 39.85 435.1 39.7 391.95 39.55 350.9 39.7 347.85 39.75 347.15 52.4 338.1 66.3 328.2 85.05 315.75 136.75 281.45 178.75 258.75 181.1 257.45 181.85 254.3 182.45 251.35 181.5 248.3 180.5 245.15 178.4 243.75 176 242.25 173.1 243.75 161.35 249.9 155.55 251.75 149.45 253.65 142 257.45 107.55 275.85 84.45 288.1 40.45 311.35 38.6 310.3 33.65 307.5 35.75 257.9 39 206.3 39.3 201.1 39.4 199.15 78.1 174.4 118.6 148.5 134.15 142.05 137.55 140.6 147.95 131.1 159 121 165.8 117.3 180.45 109.25 194.8 97.15 202 91 207.45 85.65 209.65 84.05 210.1 80.95 210.55 78.1 209.35 75.25 Z"/>
</g>
</defs>

<g transform="matrix( 1, 0, 0, 1, 0,0) ">
<use xlink:href="#Layer0_0_FILL"/>
</g>
</svg>
