<svg xmlns="http://www.w3.org/2000/svg" viewBox="0 0 1000 600">
<path fill="#8B7F74" d="
M 671.3 303.5
Q 659.95 309.45 654.35 310.7 648.45 311.95 641.25 315.65 621.75 325.65 611.2 330.95 592.5 340.35 580.3 346 569 351.15 552.2 360.95 540.85 367.6 539.35 366.75 534.6 364.05 535.2 280.9 536.75 197.4 536.6 195.55 536.4 193.05 532.75 193.15 529.45 193.3 524.8 195.4 520.15 197.5 516.95 200.3 513.4 203.4 513.4 205.9 513.4 206.85 510.3 243.8 507.1 281.95 506.75 292.75 506.5 302.3 507.15 374.45 507.8 444.6 507.55 448.8 507.15 455.2 505.5 522.15 503.85 588.8 503.95 594.8 504 598.95 518.75 598.95 524.65 598.9 528.9 597.95 533.6 596.95 533.7 595.25 534.55 564.65 536.4 520.75 536.65 514.85 538.1 495.2 539.4 476.95 539.65 468.75 540.5 441.55 540.4 420.8 540.25 402.25 540.4 399.2 540.5 398.3 574.45 376.25 608.7 354 614 351.6 625.7 346.3 644 335.6 669.1 320.9 673.45 318.5 675.75 317.25 676.95 314.1 678.05 311.2 677.8 308.15 677.5 305 675.9 303.6 674.1 302.05 671.3 303.5
M 708.2 140
Q 708.2 137.5 705.75 135.8 703.5 134.2 700.3 133.9 697.05 133.55 694.7 134.65 692.15 135.85 691.95 138.35 691.95 138.4 688.75 160.35 685.6 181.6 685.4 186.5 685.35 188.85 690.15 254.55 693.95 319.6 689.25 322.3 687.4 323.35 687.55 339.75 687.6 349.05 688.1 357.15 688.3 360.65 688.15 399.8 688.05 441.8 688.9 468.75 689.15 477.25 690.45 495.2 691.95 515.8 692.2 520.75 693.2 545.5 694.1 572.5 694.75 593.35 694.9 595.25 695.05 596.95 699.65 597.95 703.95 598.9 709.85 598.95 724.55 598.95 724.6 594.8 724.7 588.95 723.05 522.15 721.45 455.35 721.05 448.8 720.75 444.6 721.4 374.45 722.05 302.25 721.75 292.75 721.5 282.75 716.4 260.55 710.75 235.85 709.8 226.7 709.15 220.7 708.65 180.65 708.2 149.45 708.2 140
M 980.65 263.35
Q 972.85 267.8 972.55 271.5 972.5 272.6 975.9 321.65 979.3 371 979.05 379.75 978.05 410.6 973.3 458.5 969.25 498.7 967.1 510.85 966.8 512.5 962.2 517.05 957.1 522.05 949.6 527.65 929.65 542.55 907.8 550.75 888.85 557.85 866.65 559.75 857.5 560.55 851.85 559.9 846.05 559.3 846.3 557.45 848.4 543.4 847.25 505.95 845.6 470.25 845.65 467.8 846.55 440.5 846.9 315.85 847.25 193.95 847.35 191.45 847.4 190.7 844.05 190.5 840.75 190.25 836.75 190.8 826.1 192.2 826.1 196.5 826.1 205.65 822.2 259.05 818.45 311.25 818.6 317.05 818.6 359.05 819 427.15 819.1 433.9 817.35 512.25 815.55 593.3 815.55 593.85 815.55 596 820.5 597.2 825 598.3 831.6 598.3 838.05 598.35 842.6 597.3 847.65 596.15 847.65 594.3 847.95 588.1 856.9 586.4 862.35 585.45 877.55 582.75 909.05 576.85 916.25 571.35 918.1 569.95 935.65 564.15 953.15 558.4 954.85 557.1 960.65 552.5 972.35 536.8 982.1 523.65 983.55 524.45 988.35 527.15 993.45 457.05 997.75 384.25 998 379.9 998.2 376.85 993.4 320.65 988.55 263.75 988.55 262.95 988.5 258.85 980.65 263.35
M 450 114.05
Q 449.25 111.05 447.4 109.75 445.3 108.25 442.6 109.6 375.15 142.6 352.9 153.6 316.6 170.85 298.1 180.1 264.6 196.8 264.6 200.85 264.6 209.05 260.65 291.8 260.55 295.85 261.1 373.5 261.2 388.95 261.2 421.35 261.2 453.7 261.1 457.3 260.65 473 259.25 535.65 257.95 591.05 257.8 594.55 257.7 596.35 262.3 597.6 266.45 598.75 272.4 598.9 278.45 599 282.55 597.95 287.25 596.75 287.3 594.4 287.2 591.5 287.35 588.8 287.4 587.1 303.45 576.9 325.6 562.85 328.9 560.45 353.85 542.65 385.45 524.75 391.15 521.55 388.9 514.7 388.05 512.05 386.4 510.45 384.65 508.85 383.2 509.4 370.4 514.7 361.55 519.4 348.25 526.45 329.35 539 305.75 554.7 296.2 559.55 287.05 564.15 287.65 560.35 289.75 545.9 291.85 507.4 293.3 479.1 293.55 467.8 294.4 440.75 294.25 404.35 294.15 370.7 294.3 367.3 294.35 366.6 305.45 358.55 317.75 349.65 334.5 338.45 380.85 307.45 421.4 285.5 423.65 284.25 424.4 281 424.95 278.05 424.05 274.9 423.1 271.6 421.05 270.1 418.75 268.45 415.95 269.9 410.7 272.65 382.8 286.45 362.3 296.55 350.8 303.35 333.25 313.7 314.85 322.65 295.35 332.15 293.2 331 288.4 328.3 290.9 277.1 294.45 224.05 294.75 219 294.8 217.65 345.95 185.05 396.1 153.1 406.35 147.55 443.65 127.15 447.2 124.65 449.35 123.1 450.1 119.95 450.75 117 450 114.05
M 210.35 75.75
Q 209.15 72.65 206.95 71.3 204.5 69.8 201.7 71.2 201.65 71.25 161.4 95.35 120.75 119.65 106.95 126.5 93.5 133.15 63.05 152.1 41.15 165.7 41.1 163.1 40.55 146.2 35.4 41.5 33.9 7.4 33.75 5.75 33.55 3.15 30.75 2.55 28.2 1.95 24.65 3.1 21.15 4.25 18.7 6.45 16 8.85 16 11.45 15.85 43.1 15.55 75.6 14.85 140.35 13.85 149.85 12.05 167.2 8.25 216.45 4.35 267.65 3.9 281.25 3.6 291.15 4.3 365.75 4.95 438.3 4.7 442.65 4.3 449.3 2.6 519.05 0.95 588.5 1 594.7 1.1 599 17.3 598.95 23.8 598.95 28.5 597.95 33.65 596.9 33.75 595.15 39.45 478.8 39.9 463.3 40.85 435.1 40.7 391.95 40.55 350.9 40.7 347.85 40.8 345.85 86.05 316.25 137.6 282.55 179.75 259.75 182.1 258.45 182.85 254.95 183.45 251.75 182.5 248.3 181.5 244.75 179.4 243.1 177 241.25 174.1 242.75 162.35 248.9 156.55 250.75 150.45 252.65 143 256.45 108.55 275.1 85.45 287.6 41.45 311.35 39.6 310.3 34.65 307.5 36.75 257.9 40 206.3 40.3 201.1 40.4 199.2 79.1 174.9 119.55 149.55 135.15 143.05 138.55 141.6 148.95 132.1 160 122 166.8 118.3 181.45 110.25 195.8 98.15 203 92 208.45 86.65 210.65 85.05 211.1 81.8 211.55 78.8 210.35 75.75 Z"/>
</svg>
