<svg xmlns="http://www.w3.org/2000/svg" viewBox="0 0 1000 600">
<path d="
M 209.35 76
Q 208.15 73.45 205.95 72.4 203.5 71.3 200.7 72.7 200.65 72.75 160.4 96.85 119.75 121.15 105.95 128 92.05 134.9 62.55 153.6 41.15 167.15 41.1 164.6 40.8 155.1 38.55 107.85 36.79453125 70.513671875 35.35 41.5 33.9 7.4 33.75 5.75 33.55 3.15 31.05 1.9 28.8 0.75 25.65 1.1 22.55 1.45 20.4 3.05 18 4.85 18 7.45 18.6 22.1 18.1 32 18.1 59.15 18 86.35 17.85 140.55 16.85 149.85 15.75 160.6 9.75 216.45 4.3 269.25 3.9 281.25 3.6 291.15 4.3 365.75 4.95 438.3 4.7 442.65 4.3 449.3 2.6 519.05 0.95 588.5 1 594.7 1.05 599 15.8 598.95 21.7 598.95 25.95 597.95 30.65 596.9 30.75 595.15 30.8 594.1 31.55 571.15 32.45 543.85 33.55 517.1 33.8 511.3 35.3 490.65 36.65 471.9 36.9 463.3 37.85 435.1 37.7 391.95 37.55 350.9 37.7 347.85 37.8 345.85 84.05 315.75 136.55 281.55 178.75 258.75 181.1 257.45 181.85 254.5 182.45 251.8 181.5 249.05 180.5 246.2 178.4 245.05 176 243.75 173.1 245.25 161.35 251.4 155.55 253.25 149.45 255.15 142 258.95 138.8 260.6 110.95 275.35 90.7 286.05 78.95 291.4 68.65 296.1 49.9 306.4 38.25 312.75 36.6 311.8 31.65 309 34.75 258.65 39 206.3 39.3 201.1 39.4 199.15 78.1 174.4 118.6 148.5 134.15 142.05 137.55 140.6 147.95 131.1 159 121 165.8 117.3 180.45 109.25 194.8 97.15 202 91 207.45 85.65 209.65 84.05 210.1 81.15 210.55 78.55 209.35 76
M 464.15 81.05
Q 462 79.75 459.2 81.15 458.75 81.4 418.35 102.95 377 125.05 363.35 131.8 325.55 150.15 306.15 160.2 271 178.4 271 182.7 271 195.35 269.2 232.95 267.45 267.85 266.95 281.25 266.85 286.25 267.15 307.4 267.15 332.5 267.4 365.75 267.75 442.45 267.75 442.65 267.6 444.25 267.4 452.45 266.95 468.7 265.5 533.5 264.15 590.8 264 594.4 263.9 596.3 268.5 597.6 272.65 598.75 278.6 598.9 284.65 599.05 288.75 597.95 293.45 596.7 293.5 594.25 293.4 591.25 293.55 588.45 293.6 586.65 309.7 576.15 333.45 560.65 335.55 559.15 377.1 529.5 390.05 522.2 395.9 518.9 393.65 512.85 391.3 506.85 387.7 508.35 377.45 512.6 367.3 518.7 359.1 523.65 336 538.95 311.1 555.55 302.2 560.25 293.3 564.85 293.85 561.05 296.1 546.2 298.15 505.3 299.6 476.25 299.95 463.3 300.85 435.25 300.75 392 300.6 351 300.75 347.85 300.85 345.7 342.3 318 390.3 285.9 432.2 263.25 437.35 260.45 435 253 432.5 245.45 426.55 248.6 421.35 251.3 392.3 265.75 371.15 276.1 359.2 283.2 341.05 293.9 322 303.1 301.75 313.05 299.6 311.8 294.65 309 297.25 258.05 300.95 205.15 301.2 199.95 301.3 198.5 355.15 163.9 408.2 129.8 418.65 124.05 433.5 115.9 449.45 105.3 454.6 101.85 463.95 95.2 466.15 93.6 466.95 90.55 467.65 87.75 466.85 85 466.05 82.2 464.15 81.05
M 675.95 254.8
Q 669.85 256.15 662.4 259.95 642.25 270.2 631.35 275.75 611.95 285.55 599.35 291.3 587.75 296.6 570.3 306.85 558.55 313.7 557 312.8 552.15 310 552.7 247 554.4 183.6 554.15 181.7 553.7 176.3 540.45 181.6 527.15 186.85 527.15 192.4 527.15 196.35 524.3 282.25 524 292.2 524.75 366.75 525.35 439.3 525.1 443.65 524.7 450.35 523 519.55 521.35 588.5 521.4 594.7 521.45 596.8 526.05 597.95 530.15 598.95 536.2 598.95 542.1 598.95 546.35 597.95 551.05 596.9 551.15 595.15 551.2 594 551.95 571.65 552.85 544.75 553.95 518.1 554.15 512.5 555.75 491.65 557.1 472.95 557.3 464.3 558.2 436.25 558.1 390.75 558 347.5 558.1 344.35 558.2 343.45 593.35 320.55 628.75 297.6 634.25 295.1 646.3 289.6 665.25 278.55 691.15 263.35 695.75 260.85 700.95 258.05 700.25 251.2 699.45 244.2 693.5 247.35 681.8 253.55 675.95 254.8
M 720.55 124.25
Q 720.55 118.75 712.9 117.95 705.2 117.05 704.75 122.55 704.65 123.9 701.4 145.3 698.25 167.3 698 172.35 697.9 177.2 699.8 208.85 700.15 214 704.1 263 706.9 310 701.95 312.8 700.05 313.8 700.25 330.8 700.25 341.05 700.8 348.85 700.95 352 700.8 393 700.7 436.25 701.6 464.3 701.85 472.95 703.2 491.65 704.75 512.5 705 518.1 706.1 544.15 707 571.65 707.7 593.45 707.8 595.15 707.95 596.9 712.6 597.95 716.85 598.95 722.75 598.95 737.5 599 737.55 594.7 737.65 588.5 735.95 519.55 734.25 450.35 733.85 443.65 733.6 439.3 734.3 366.75 734.95 292.2 734.6 282.25 734.3 272 729.1 248.95 723.25 223.5 722.25 213.9 721.55 207.7 721 166.25 720.55 133.5 720.55 124.25
M 992.55 343.1
Q 985.8 300.5 985.8 299.4 985.75 295.15 978.35 296.3 975.35 296.75 973.2 298.05 970.85 299.45 970.7 301.2 970.65 302.25 975.85 339.1 981.1 376.15 980.85 385.25 979.95 414 970.8 450.65 970.65 451.15 964.55 474.35 961.65 485.25 961.5 488.85 932.3 528.4 904.7 549.1 888.7 561.1 874.4 563.7 868.85 564.75 865.5 563.85 862.3 563.05 862.6 561.05 864.75 546.5 863.55 505.25 861.85 465.85 861.9 463.3 862.85 434.9 860.65 306.15 858.55 179.6 858.65 177.45 858.7 176.7 855.75 176.45 852.75 176.25 849.2 176.8 839.7 178.25 839.7 182.7 839.7 191.55 837.65 247.4 835.7 301.05 835.9 307.4 835.9 321.35 836.1 365.75 836.25 387.05 836.35 421.25 836.45 428.25 834.65 509.3 832.75 593.15 832.75 593.7 832.7 597.7 838.2 598.75 840.7 599.2 847.5 599 857.45 598.9 859 598.6 862.95 597.8 862.95 594.15 862.15 591.25 862.25 588.45 862.3 587.5 883.9 577.45 907.95 566.25 914.95 560.95 918.7 558.1 947.85 534.7 953.7 530.1 964.95 515.95 974 504.55 975.55 505.4 983.45 509.9 999 388.4 999.2 385.3 992.55 343.1 Z"/>
</svg>
