<svg xmlns="http://www.w3.org/2000/svg" viewBox="0 0 212 600"><path fill="#8B7F74" d="M210.3 75.8q-1.2-3-3.4-4.5-2.5-1.5-5.3 0l-40.3 24q-40.7 24.4-54.5 31.2-13.5 6.7-44 25.6-22 13.7-22 11-.5-16.8-5.6-121.5L33.8 5.7q-.3-2.6-3-3.2Q28 2 24.6 3q-3.5 1.3-6 3.5-2.6 2.3-2.6 5l-.4 64q-.8 64.8-1.8 74.3-1.8 17.4-5.6 66.6-3.8 51.2-4.3 64.8-.4 10 .3 84.6.7 72.5.4 76.8-.4 6.7-2 76.4Q.8 588.5 1 594.8q0 4.3 16.3 4.3 6.5 0 11.2-1 5-1 5.3-3 5.7-116.2 6-131.7 1-28.2 1-71.4-.3-41 0-44 0-2 45.3-31.8 51.6-33.6 93.8-56.4 2.3-1.4 3-5 .6-3-.3-6.5-1-3.6-3-5.2-2.5-1.8-5.4-.3-11.7 6.2-17.4 8-6.2 2-13.6 5.8l-57.5 31q-44 24-46 22.8-5-2.8-2.8-52.4l3.6-57q0-1.8 38.8-26 40.5-25.4 56.2-32 3.4-1.4 13.8-11 11-10 17.8-13.7 14.6-8 29-20 7.2-6.3 12.6-11.6 2.3-1.7 2.7-5 .6-3-.7-6z"/></svg>