<svg xmlns="http://www.w3.org/2000/svg" viewBox="0 0 212 600">
<path fill="#8B7F74" stroke="none" d="
M 210.35 75.75
Q 209.15 72.65 206.95 71.3 204.5 69.8 201.7 71.2 201.65 71.25 161.4 95.35 120.75 119.65 106.95 126.5 93.5 133.15 63.05 152.1 41.15 165.7 41.1 163.1 40.55 146.2 35.4 41.5 33.9 7.4 33.75 5.75 33.55 3.15 30.75 2.55 28.2 1.95 24.65 3.1 21.15 4.25 18.7 6.45 16 8.85 16 11.45 15.85 43.1 15.55 75.6 14.85 140.35 13.85 149.85 12.05 167.2 8.25 216.45 4.35 267.65 3.9 281.25 3.6 291.15 4.3 365.75 4.95 438.3 4.7 442.65 4.3 449.3 2.6 519.05 0.95 588.5 1 594.7 1.1 599 17.3 598.95 23.8 598.95 28.5 597.95 33.65 596.9 33.75 595.15 39.45 478.8 39.9 463.3 40.85 435.1 40.7 391.95 40.55 350.9 40.7 347.85 40.8 345.85 86.05 316.25 137.6 282.55 179.75 259.75 182.1 258.45 182.85 254.95 183.45 251.75 182.5 248.3 181.5 244.75 179.4 243.1 177 241.25 174.1 242.75 162.35 248.9 156.55 250.75 150.45 252.65 143 256.45 108.55 275.1 85.45 287.6 41.45 311.35 39.6 310.3 34.65 307.5 36.75 257.9 40 206.3 40.3 201.1 40.4 199.2 79.1 174.9 119.55 149.55 135.15 143.05 138.55 141.6 148.95 132.1 160 122 166.8 118.3 181.45 110.25 195.8 98.15 203 92 208.45 86.65 210.65 85.05 211.1 81.8 211.55 78.8 210.35 75.75 Z"/>
</svg>
